<?xml version="1.0" encoding="utf-8"?>
<!-- Generator: Adobe Illustrator 14.0.0, SVG Export Plug-In . SVG Version: 6.00 Build 43363)  -->
<!DOCTYPE svg PUBLIC "-//W3C//DTD SVG 1.1//EN" "http://www.w3.org/Graphics/SVG/1.1/DTD/svg11.dtd">
<svg version="1.1" xmlns="http://www.w3.org/2000/svg" xmlns:xlink="http://www.w3.org/1999/xlink" x="0px" y="0px"
	 width="1075.446px" height="158.992px" viewBox="0 0 1075.446 158.992" enable-background="new 0 0 1075.446 158.992"
	 xml:space="preserve">
<g id="Hintergrund">
</g>
<g id="Hilfslinien_anzeigen">
</g>
<g id="Vordergrund">
	<path fill-rule="evenodd" clip-rule="evenodd" fill="#005399" d="M30.708,121.568l6.561-22h25.96l6.149,22h24.05L69.516,37.671
		c-1.365-4.92-4.372-7.243-9.563-7.243H25.927v7.925h2.869c3.554,0,5.467,1.365,5.467,4.1c0,1.776-0.41,3.278-1.777,7.379
		L8.572,121.568H30.708L30.708,121.568z M59.952,84.679H40.684l10.249-33.481L59.952,84.679L59.952,84.679z"/>
	<path fill="#005399" d="M121.134,121.568V37.396c0-4.372-2.596-6.968-6.831-6.968H93.26v7.925h1.365
		c3.554,0,5.057,1.501,5.057,5.055v78.16H121.134L121.134,121.568z"/>
	<path fill="#005399" d="M157.583,121.568V37.396c0-4.372-2.598-6.968-6.833-6.968h-21.042v7.925h1.367
		c3.551,0,5.055,1.501,5.055,5.055v78.16H157.583L157.583,121.568z"/>
	<path fill-rule="evenodd" clip-rule="evenodd" fill="#005399" d="M194.576,121.568V60.218c0-4.373-2.596-6.97-6.832-6.97h-20.77
		v7.789h1.229c3.554,0,5.057,1.64,5.057,5.191v55.34H194.576L194.576,121.568z M194.986,38.764c0-6.149-4.509-9.839-12.298-9.839
		c-7.65,0-12.298,3.689-12.298,9.839c0,6.148,4.648,9.838,12.298,9.838C190.477,48.602,194.986,44.912,194.986,38.764
		L194.986,38.764z"/>
	<path fill-rule="evenodd" clip-rule="evenodd" fill="#005399" d="M212.713,72.789c7.104-3.417,14.894-5.33,21.043-5.33
		c5.739,0,7.789,2.049,7.789,8.062v1.504c-8.745,1.365-11.479,1.913-16.397,3.005c-2.869,0.685-5.467,1.504-8.063,2.596
		c-8.607,3.414-12.709,10.114-12.709,20.362c0,12.983,5.603,19.266,17.219,19.266c4.236,0,8.062-0.819,11.479-2.188
		c3.005-1.365,4.781-2.456,9.154-5.871v0.952c0,4.239,2.186,6.423,6.424,6.423h19.539v-7.375h-0.955
		c-3.69,0-5.057-1.643-5.057-6.016V75.657c0-17.353-6.013-23.365-23.366-23.365c-5.603,0-11.069,0.683-16.396,1.914
		c-5.331,1.228-8.063,2.322-14.487,5.464L212.713,72.789L212.713,72.789z M241.545,88.774v13.255
		c-3.554,3.688-7.926,5.876-11.616,5.876c-3.826,0-5.191-1.91-5.191-6.968c0-5.057,1.092-7.379,4.918-8.884
		C232.525,90.824,236.215,89.732,241.545,88.774L241.545,88.774z"/>
	<path fill-rule="evenodd" clip-rule="evenodd" fill="#005399" d="M299.3,121.568V75.384c3.554-3.963,7.246-5.74,11.484-5.74
		c4.506,0,5.598,1.777,5.598,8.608v43.316h21.32V75.111c0-10.797-0.824-14.211-4.238-17.901c-2.869-3.142-7.245-4.781-12.844-4.781
		c-8.337,0-14.213,2.596-22.134,9.973v-2.732c0-4.236-2.187-6.422-6.561-6.422h-20.224v7.789h1.229c3.554,0,5.057,1.64,5.057,5.191
		v55.34H299.3L299.3,121.568z"/>
	<path fill="#005399" d="M400.94,107.221h-29.787l28.417-39.898V53.248h-44.546c-5.052,0-7.375,2.322-7.375,7.379v12.435h7.921
		v-1.23c0-3.142,1.646-4.646,5.061-4.646h15.306l-28.695,40.309v14.074h53.698V107.221L400.94,107.221z"/>
	<path fill-rule="evenodd" clip-rule="evenodd" fill="#005399" d="M572.657,81.074c0-40.038-29.926-69.963-69.966-69.963
		c-40.03,0-69.956,29.926-69.956,69.963s29.926,69.958,69.956,69.958C542.731,151.032,572.657,121.111,572.657,81.074
		L572.657,81.074z M560.766,81.074c0,34.022-24.456,58.756-58.074,58.756c-33.608,0-58.075-24.734-58.075-58.756
		c0-34.025,24.466-58.758,58.075-58.758C536.31,22.316,560.766,47.185,560.766,81.074L560.766,81.074z M483.703,120.287v-68.32
		h-11.891c-5.876,0-8.198,2.186-8.198,8.198v60.122H483.703L483.703,120.287z M521.689,120.287h20.089V60.165
		c0-6.013-2.322-8.198-8.199-8.198h-11.891V120.287L521.689,120.287z M512.806,120.287V43.085c0-6.149-2.184-8.199-8.199-8.199
		h-18.035v8.608h1.091c4.1,0,4.923,0.958,4.923,5.876v70.916H512.806L512.806,120.287z"/>
	<polygon fill-rule="evenodd" clip-rule="evenodd" fill="#005399" points="643.414,121.592 643.414,46.566 666.742,46.566 
		666.742,30.605 598.264,30.605 598.264,46.566 621.591,46.566 621.591,121.592 	"/>
	<path fill-rule="evenodd" clip-rule="evenodd" fill="#005399" d="M693.785,121.592V53.387h-20.598v68.205H693.785z M695.559,38.792
		c0-6.003-4.637-9.685-12.275-9.685c-7.64,0-12.279,3.682-12.279,9.82s4.64,9.822,12.279,9.822
		C691.057,48.749,695.559,45.065,695.559,38.792z"/>
	<path fill-rule="evenodd" clip-rule="evenodd" fill="#005399" d="M728.084,121.592V76.168c3.819-3.411,7.093-4.775,12.004-4.775
		c2.455,0,4.364,0.273,8.321,1.501V54.069c-3.001-0.955-4.229-1.093-6.138-1.093c-5.32,0-10.368,3.274-14.461,9.413h-0.955v-9.002
		h-19.369v68.205H728.084z"/>
	<path fill-rule="evenodd" clip-rule="evenodd" fill="#005399" d="M775.764,121.592V53.387h-20.599v68.205H775.764z M777.537,38.792
		c0-6.003-4.638-9.685-12.276-9.685c-7.64,0-12.279,3.682-12.279,9.82s4.64,9.822,12.279,9.822
		C773.035,48.749,777.537,45.065,777.537,38.792z"/>
	<path fill-rule="evenodd" clip-rule="evenodd" fill="#005399" d="M843.481,121.592v-42.56c0-13.097-1.636-18.279-7.364-22.509
		c-4.229-3-9.277-4.365-16.779-4.365c-11.596,0-21.553,2.591-30.282,7.912l4.364,13.369l1.637-0.818
		c5.865-2.866,6.958-3.274,10.912-4.094c2.592-0.545,5.049-0.818,7.366-0.818c6.821,0,9.823,2.456,9.823,8.049v3.137h-1.911
		c-23.734,0-35.466,8.049-35.466,24.418c0,12.276,6.411,18.962,18.279,18.962c6.273,0,11.866-1.638,15.686-4.774
		c0.818-0.684,1.911-1.773,3.412-3.41h0.818v7.502H843.481z M823.158,91.446v11.866c-2.729,3.139-5.865,4.638-10.232,4.638
		c-4.365,0-6.684-2.319-6.684-6.819c0-3.685,1.638-6.413,4.637-7.776c2.594-1.091,6.139-1.908,8.867-1.908H823.158z"/>
	<path fill-rule="evenodd" clip-rule="evenodd" fill="#005399" d="M899.734,103.039c-5.048,3.412-9.003,4.911-13.642,4.911
		c-8.73,0-13.232-6.819-13.232-19.643c0-14.05,4.641-20.871,13.915-20.871c4.638,0,7.911,1.365,12.549,5.458l3.411-13.504
		c-5.32-4.64-11.868-6.958-19.779-6.958c-18.96,0-31.646,14.325-31.646,35.604c0,21.143,11.866,34.512,30.691,34.512
		c5.864,0,11.185-1.229,15.688-3.685c1.772-0.952,2.729-1.5,5.047-3.273L899.734,103.039z"/>
	<polygon fill-rule="evenodd" clip-rule="evenodd" fill="#005399" points="614.136,153.744 628.306,153.744 643.322,126.428 
		621.567,126.428 	"/>
	<g>
		<g>
			<polygon fill-rule="evenodd" clip-rule="evenodd" fill="#005399" points="984.317,62.818 1013.598,62.818 1013.598,126.26 
				984.317,126.26 984.317,62.818 			"/>
			<polygon fill-rule="evenodd" clip-rule="evenodd" fill="#005399" points="950.343,63.006 1047.572,63.006 1047.572,92.286 
				950.343,92.286 950.343,63.006 			"/>
			<path fill-rule="evenodd" clip-rule="evenodd" fill="#FFFFFF" d="M981.322,77.272c0-9.748,7.902-17.646,17.635-17.646
				c9.748,0,17.649,7.898,17.649,17.646c0,9.744-7.901,17.642-17.649,17.642C989.225,94.914,981.322,87.016,981.322,77.272
				L981.322,77.272z"/>
			<path fill-rule="evenodd" clip-rule="evenodd" fill="#005399" d="M981.322,52.841c0-9.743,7.902-17.646,17.635-17.646
				c9.748,0,17.649,7.902,17.649,17.646s-7.901,17.643-17.649,17.643C989.225,70.483,981.322,62.584,981.322,52.841L981.322,52.841z
				"/>
		</g>
		<path fill-rule="evenodd" clip-rule="evenodd" fill="#005399" d="M1068.738,80.729c0-39.934-29.85-69.783-69.785-69.783
			c-39.928,0-69.776,29.849-69.776,69.783c0,39.934,29.849,69.778,69.776,69.778C1038.889,150.508,1068.738,120.663,1068.738,80.729
			L1068.738,80.729z M1056.877,80.729c0,33.935-24.393,58.605-57.924,58.605c-33.522,0-57.926-24.671-57.926-58.605
			c0-33.938,24.403-58.606,57.926-58.606C1032.484,22.124,1056.877,46.928,1056.877,80.729L1056.877,80.729z"/>
	</g>
</g>
</svg>
