<svg width="24" height="31" viewBox="0 0 24 31" fill="none" xmlns="http://www.w3.org/2000/svg">
<path d="M2.43079 19.22L10.9414 30.4733C11.0655 30.637 11.2258 30.7697 11.4098 30.8611C11.5938 30.9524 11.7964 31 12.0019 31C12.2074 31 12.41 30.9524 12.594 30.8611C12.778 30.7697 12.9383 30.637 13.0624 30.4733L21.573 19.22C22.9191 17.4406 23.7417 15.3213 23.9484 13.1004C24.1551 10.8794 23.7377 8.64493 22.7431 6.64803C21.7485 4.65114 20.2162 2.97104 18.3183 1.79661C16.4205 0.622186 14.2324 0 12 0C9.76765 0 7.57955 0.622186 5.68169 1.79661C3.78384 2.97104 2.25147 4.65114 1.25687 6.64803C0.262261 8.64493 -0.155149 10.8794 0.0515631 13.1004C0.258275 15.3213 1.08091 17.4406 2.42699 19.22H2.43079ZM12.0019 5.65374C13.2235 5.65374 14.4178 6.0157 15.4335 6.69385C16.4493 7.372 17.241 8.33588 17.7085 9.46361C18.176 10.5913 18.2983 11.8322 18.06 13.0294C17.8216 14.2266 17.2334 15.3263 16.3695 16.1894C15.5057 17.0526 14.4051 17.6403 13.2069 17.8785C12.0088 18.1166 10.7668 17.9944 9.63816 17.5273C8.50951 17.0602 7.54483 16.2691 6.86612 15.2542C6.18741 14.2393 5.82515 13.046 5.82515 11.8254C5.82717 10.1892 6.47857 8.62057 7.6365 7.4636C8.79443 6.30662 10.3643 5.65575 12.0019 5.65374Z" fill="black"/>
</svg>
