<svg width="24" height="24" viewBox="0 0 24 24" fill="none" xmlns="http://www.w3.org/2000/svg">
<path d="M15.999 15C15.849 15 15.696 14.966 15.553 14.895L11.553 12.895C11.214 12.725 11 12.379 11 12V5C11 4.448 11.448 4 12 4C12.552 4 13 4.448 13 5V11.382L16.447 13.106C16.941 13.353 17.141 13.954 16.894 14.448C16.719 14.798 16.366 15 15.999 15ZM12 24C5.383 24 0 18.617 0 12C0 5.383 5.383 0 12 0C18.617 0 24 5.383 24 12C24 18.617 18.617 24 12 24ZM12 2C6.486 2 2 6.486 2 12C2 17.514 6.486 22 12 22C17.514 22 22 17.514 22 12C22 6.486 17.514 2 12 2Z" fill="black"/>
</svg>
